<?xml version="1.0" standalone="no"?>
<!DOCTYPE svg PUBLIC "-//W3C//DTD SVG 20010904//EN"
 "http://www.w3.org/TR/2001/REC-SVG-20010904/DTD/svg10.dtd">
<svg version="1.0" xmlns="http://www.w3.org/2000/svg"
 width="1024.000000pt" height="1024.000000pt" viewBox="0 0 1024.000000 1024.000000"
 preserveAspectRatio="xMidYMid meet">

<g transform="translate(0.000000,1024.000000) scale(0.100000,-0.100000)"
fill="#000000" stroke="none">
<path d="M7568 8820 c-117 -121 -214 -224 -216 -228 -1 -5 16 -23 39 -41 l41
-34 82 82 82 82 24 -26 23 -25 -36 -122 -36 -123 44 -45 c24 -24 47 -41 50
-38 3 3 21 60 39 127 18 67 35 124 38 126 2 2 21 0 43 -6 103 -29 235 75 235
185 0 74 -39 130 -170 246 l-68 60 -214 -220z m332 -70 c0 -22 -9 -41 -29 -61
-48 -47 -102 -36 -171 35 l-34 36 64 66 65 65 53 -55 c40 -42 52 -61 52 -86z"/>
<path d="M7948 8470 c-115 -120 -210 -224 -212 -232 -6 -19 161 -170 220 -199
34 -16 66 -23 106 -24 36 0 50 -2 38 -7 -11 -4 -20 -11 -21 -15 0 -4 -2 -18
-5 -30 -2 -13 1 -23 6 -23 6 0 10 -5 10 -11 0 -5 -4 -7 -10 -4 -20 12 -31 -7
-13 -22 16 -13 16 -14 1 -9 -10 3 -20 1 -23 -5 -4 -5 -10 -7 -15 -4 -5 3 -11
1 -14 -4 -4 -5 3 -12 14 -16 21 -7 26 -20 11 -30 -5 -3 -11 3 -14 12 -3 15 -6
13 -17 -10 -10 -20 -16 -24 -22 -15 -6 10 -8 10 -8 0 0 -16 -54 -72 -69 -72
-6 0 -11 -7 -11 -15 0 -8 -6 -15 -14 -15 -8 0 -22 -7 -31 -16 -8 -9 -22 -13
-30 -10 -8 3 -15 1 -15 -3 0 -5 5 -11 12 -13 8 -3 7 -11 -4 -27 -10 -14 -18
-18 -23 -12 -4 8 -11 6 -21 -4 -14 -13 -14 -17 -1 -30 8 -8 17 -11 21 -8 3 4
6 -1 6 -11 0 -9 4 -15 8 -12 11 7 38 -11 29 -20 -13 -14 -236 152 -407 302
-134 117 -320 308 -410 420 -76 94 -90 109 -65 69 34 -57 130 -170 252 -295
l122 -127 -355 -356 -355 -356 -162 45 c-89 24 -166 44 -172 43 -21 -1 47 -22
255 -81 417 -116 795 -193 1080 -219 144 -13 373 -6 471 15 73 16 163 51 179
71 5 6 -12 1 -39 -12 -81 -40 -195 -56 -401 -56 -201 0 -316 11 -540 49 -235
40 -650 132 -650 144 0 3 157 162 350 355 l349 349 58 -55 c101 -95 285 -245
391 -319 34 -23 62 -45 62 -47 0 -5 -89 46 -118 68 -19 15 -27 16 -43 6 -10
-6 -19 -15 -19 -20 0 -4 -4 -5 -10 -2 -5 3 -10 1 -10 -4 0 -6 -8 -11 -17 -11
-15 0 -16 -2 -3 -10 13 -8 12 -10 -2 -10 -10 0 -18 -5 -18 -11 0 -5 -4 -7 -10
-4 -5 3 -10 1 -10 -4 0 -6 -4 -11 -10 -11 -13 0 -50 -32 -46 -39 2 -3 -2 -12
-10 -19 -9 -8 -14 -9 -14 -2 0 18 -38 -7 -45 -30 -3 -11 -13 -20 -20 -20 -8 0
-19 -9 -25 -20 -6 -11 -17 -20 -25 -20 -8 0 -15 -9 -15 -20 0 -11 -7 -20 -15
-20 -8 0 -22 -17 -31 -37 -10 -21 -20 -42 -22 -47 -3 -5 2 -7 11 -3 10 3 17 2
17 -3 0 -10 -15 -14 -34 -11 -5 1 -4 -5 4 -13 10 -13 10 -16 0 -16 -10 0 -10
-3 0 -15 7 -8 15 -13 19 -11 3 2 20 -2 36 -10 17 -8 22 -12 12 -9 -12 3 -17 1
-14 -7 2 -7 12 -13 23 -13 10 0 35 -6 55 -13 20 -7 41 -12 45 -11 5 1 22 -3
37 -9 15 -7 38 -12 50 -12 12 0 38 -2 57 -5 47 -8 134 -8 195 -1 28 3 84 8
125 10 41 3 76 10 78 16 2 5 9 10 16 10 7 0 21 9 31 20 10 11 22 17 26 14 5
-3 6 2 3 10 -4 11 1 14 20 12 20 -3 26 2 31 26 4 16 15 37 26 47 10 9 21 31
25 47 5 28 2 31 -46 54 -73 34 -71 42 2 13 75 -30 177 -50 204 -38 14 6 5 10
-41 19 -72 14 -155 45 -155 58 0 5 5 6 11 3 5 -4 21 -4 35 -1 19 5 25 13 23
29 -1 12 2 31 6 41 5 10 9 28 10 40 3 36 16 56 37 56 19 0 19 1 4 25 -18 27
-20 36 -8 34 22 -4 34 3 28 16 -3 8 4 23 15 34 15 14 19 26 14 42 -6 17 -4 21
8 16 11 -4 14 -1 11 7 -3 7 2 20 10 29 19 19 22 62 4 51 -7 -5 -3 5 10 20 22
29 19 45 -13 68 -6 5 -6 8 2 8 6 0 15 9 18 20 4 11 12 18 18 14 7 -3 5 0 -3 8
-19 16 -15 48 6 48 8 0 14 9 14 20 0 11 5 20 10 20 6 0 10 5 10 10 0 7 -7 7
-20 0 -11 -6 -18 -15 -15 -21 4 -5 1 -9 -4 -9 -27 0 3 49 31 51 7 0 4 4 -7 9
-11 5 -15 9 -9 9 6 1 10 12 9 25 -3 19 1 24 16 21 16 -3 17 -1 9 14 -9 18 -4
31 12 31 5 0 7 -4 4 -9 -3 -5 1 -12 9 -15 13 -4 13 -2 5 14 -13 24 -13 40 1
40 5 0 7 -4 4 -10 -3 -5 -2 -10 4 -10 6 0 8 17 5 43 -4 30 -2 38 5 27 5 -8 12
-12 15 -9 8 7 -5 49 -15 49 -17 0 -9 18 11 23 11 3 20 10 20 16 0 9 -6 8 -22
0 l-22 -12 18 28 c13 20 15 30 8 33 -15 5 -16 42 -2 42 6 0 10 10 10 22 l0 21
-18 -21 c-12 -13 -23 -18 -31 -12 -15 9 -6 30 12 30 7 0 6 -4 -3 -11 -12 -9
-12 -10 -1 -7 23 7 25 28 3 28 -12 0 -29 -11 -40 -25 -11 -14 -25 -25 -30 -25
-6 0 -13 -8 -15 -17 -3 -11 -5 -7 -6 10 -2 55 -48 123 -143 211 -50 47 -94 86
-97 85 -4 0 -99 -99 -213 -219z m321 -68 c33 -120 -132 -285 -256 -258 -29 7
-124 75 -120 88 1 3 65 72 141 153 l140 147 42 -45 c25 -26 47 -61 53 -85z
m97 -218 c-3 -9 -6 -20 -6 -25 0 -5 -9 -9 -21 -9 -11 0 -18 -4 -15 -8 7 -12
-55 -70 -74 -69 -9 0 10 26 45 63 60 63 82 78 71 48z m-131 -144 c13 -5 14 -9
5 -9 -8 0 -24 4 -35 9 -13 5 -14 9 -5 9 8 0 24 -4 35 -9z m155 -215 c0 -8 -4
-15 -10 -15 -5 0 -10 7 -10 15 0 8 5 15 10 15 6 0 10 -7 10 -15z m-510 -189
c0 -2 -9 -6 -20 -9 -11 -3 -18 -1 -14 4 5 9 34 13 34 5z m185 -274 c-3 -3 -11
0 -18 7 -9 10 -8 11 6 5 10 -3 15 -9 12 -12z"/>
<path d="M6859 8485 c5 -11 17 -29 26 -40 l16 -20 -10 20 c-5 11 -17 29 -26
40 l-16 20 10 -20z"/>
<path d="M7211 8184 c0 -11 3 -14 6 -6 3 7 2 16 -1 19 -3 4 -6 -2 -5 -13z"/>
<path d="M7401 7976 c-9 -10 -8 -16 4 -26 19 -16 41 1 32 24 -8 20 -21 20 -36
2z"/>
<path d="M7624 7775 c-4 -9 -2 -21 4 -27 15 -15 44 -1 40 19 -4 23 -36 29 -44
8z"/>
<path d="M8290 7380 c-9 -16 -8 -22 4 -26 21 -8 36 3 36 27 0 25 -26 25 -40
-1z"/>
<path d="M5083 7365 c-26 -18 -30 -52 -9 -81 10 -13 11 -23 4 -31 -27 -32 10
-7 69 47 115 105 103 65 -18 -57 -190 -195 -299 -309 -314 -331 -14 -19 -12
-20 28 -30 95 -23 127 -25 127 -7 0 9 4 14 9 10 5 -3 12 -1 16 5 4 6 10 8 15
5 5 -3 14 3 19 14 6 10 35 44 66 75 30 31 55 61 55 66 0 5 21 24 48 42 26 18
74 60 107 94 33 35 73 66 88 69 26 7 167 -19 197 -36 11 -5 26 3 52 28 20 19
41 34 48 31 6 -2 -42 -55 -107 -118 -327 -319 -372 -365 -365 -371 4 -4 57
-21 117 -38 201 -58 332 -105 303 -109 -14 -2 -29 -9 -32 -17 -3 -10 0 -12 11
-8 11 4 14 2 9 -5 -12 -21 37 -40 309 -121 726 -216 1212 -300 1556 -271 117
11 253 45 250 63 -3 15 23 33 48 35 30 2 65 39 93 100 19 42 19 45 3 91 l-17
47 108 161 c93 138 114 164 144 174 19 6 45 22 57 35 21 21 22 23 4 29 -10 3
-45 -1 -77 -10 -325 -85 -828 -19 -1687 222 -136 38 -201 52 -210 45 -6 -5
-28 -8 -47 -7 -19 2 -40 -1 -46 -6 -7 -5 -40 -1 -85 11 -115 31 -494 120 -599
141 -52 10 -147 22 -210 25 -97 5 -118 3 -137 -11z m1136 -291 c-34 -36 -366
-347 -448 -420 -25 -22 -42 -32 -40 -23 5 19 510 491 518 484 2 -3 -11 -21
-30 -41z m555 -239 c-3 -8 -93 -98 -200 -200 -169 -161 -214 -199 -214 -181 0
5 412 396 417 396 1 0 0 -7 -3 -15z"/>
<path d="M5540 6519 c14 -6 97 -33 184 -60 88 -27 161 -51 164 -53 2 -3 -67
-83 -154 -178 -174 -190 -477 -531 -649 -731 -79 -91 -114 -126 -125 -121 -57
25 -102 10 -160 -52 l-35 -38 49 42 c47 40 76 53 76 33 0 -16 -1165 -1201
-1228 -1249 -18 -14 -92 -91 -165 -171 -72 -80 -144 -159 -159 -176 -16 -16
-45 -63 -65 -102 -20 -40 -41 -73 -45 -73 -5 0 -7 -13 -6 -28 1 -15 -1 -33 -6
-40 -4 -7 -2 -12 3 -12 6 0 11 -6 11 -14 0 -12 9 -11 52 5 28 10 54 22 57 26
3 5 29 26 56 48 28 22 73 60 100 86 79 74 115 102 122 95 6 -6 -14 -30 -152
-173 -37 -39 -53 -63 -43 -63 8 0 23 -15 32 -32 8 -18 16 -29 16 -25 0 5 19
-13 41 -40 23 -26 54 -59 68 -72 14 -14 25 -29 23 -34 -1 -5 2 -5 8 -2 6 4 17
0 23 -8 7 -9 23 -30 37 -48 14 -18 37 -45 53 -61 31 -34 33 -40 12 -32 -30 12
-14 -5 30 -31 42 -24 144 -61 149 -53 1 2 10 22 20 45 23 53 38 46 34 -16 -2
-46 -2 -46 31 -49 27 -3 32 0 28 12 -3 8 -2 27 3 43 5 15 18 60 30 100 12 40
28 77 35 83 8 6 12 17 9 25 -3 7 0 16 5 20 6 3 9 11 6 16 -4 5 3 5 16 1 15 -6
48 -1 98 14 127 37 323 87 369 94 28 5 45 3 52 -6 20 -24 68 -505 56 -567 -3
-19 -29 -79 -56 -133 -27 -54 -47 -106 -45 -115 3 -9 -1 -19 -10 -22 -8 -4
-12 -12 -9 -20 3 -8 -14 -33 -39 -59 -47 -47 -81 -101 -70 -112 4 -3 2 -6 -3
-6 -5 0 -16 -20 -23 -45 -7 -25 -17 -45 -23 -45 -5 0 -6 -5 -2 -11 3 -6 -2
-23 -13 -37 -11 -15 -28 -46 -38 -69 -10 -24 -23 -39 -29 -36 -6 3 -8 3 -4 -2
8 -8 -13 -70 -43 -126 -10 -20 -16 -39 -12 -43 3 -3 1 -6 -5 -6 -21 0 -40 -54
-38 -113 0 -31 -3 -59 -9 -61 -15 -7 71 -86 93 -86 10 0 210 161 443 358 234
196 528 443 655 549 149 125 237 205 251 230 22 39 55 184 213 928 51 237 101
450 112 475 10 25 34 84 53 131 45 117 69 163 126 239 77 105 229 239 355 314
47 28 48 30 24 37 l-25 7 25 2 c14 1 28 2 33 1 4 0 7 6 7 14 0 8 7 15 16 15 9
0 14 6 11 13 -7 17 39 60 66 62 14 1 22 8 22 21 0 10 6 18 13 16 8 -1 11 1 8
6 -7 11 32 44 44 37 6 -4 10 3 10 14 0 15 6 21 21 21 11 0 18 4 14 10 -8 12
26 51 38 43 6 -3 7 -2 4 4 -3 5 31 45 76 89 45 43 82 81 82 84 1 13 17 30 26
25 5 -4 9 0 9 7 0 7 11 25 25 40 14 15 25 32 25 38 0 5 5 10 11 10 5 0 7 5 3
12 -5 8 -2 9 9 5 11 -4 17 -1 17 8 0 8 5 15 10 15 6 0 10 9 10 19 0 12 12 24
29 32 16 7 27 17 24 22 -3 5 5 19 18 33 12 13 19 24 15 24 -3 0 7 13 24 30 16
16 30 32 30 36 0 4 10 16 23 28 13 12 22 27 19 35 -2 7 5 15 17 18 12 3 21 11
21 17 0 7 10 23 22 36 16 17 18 25 9 28 -9 3 -8 9 5 23 16 18 16 19 0 19 -9 0
-14 5 -11 10 3 6 -1 10 -9 10 -9 0 -16 5 -16 10 0 6 -5 10 -11 10 -5 0 -7 -6
-3 -12 5 -9 2 -9 -9 1 -9 7 -17 11 -17 7 0 -3 -11 -2 -23 3 -13 5 -47 12 -76
15 -29 3 -56 8 -61 11 -4 2 -34 6 -66 9 -70 5 -197 27 -191 32 2 3 57 -1 122
-7 160 -15 470 -7 550 16 59 17 135 51 135 60 0 3 -12 -1 -27 -8 -93 -48 -316
-72 -515 -57 -395 29 -751 110 -1489 336 -163 50 -229 67 -169 43z m466 -150
c259 -80 676 -183 864 -215 44 -7 44 -7 16 -15 -16 -5 -32 -6 -36 -4 -4 2 -40
7 -81 10 -114 9 -147 13 -158 19 -5 3 -12 0 -14 -6 -4 -8 -6 -7 -6 3 -1 14 -9
19 -51 30 -3 0 -13 5 -24 11 -13 7 -16 7 -12 -1 4 -6 2 -11 -3 -11 -6 0 -11 6
-11 13 0 7 -5 5 -11 -5 -5 -9 -16 -15 -23 -12 -8 3 -17 1 -20 -5 -4 -6 -13 -8
-21 -4 -11 4 -14 0 -9 -13 3 -12 0 -10 -9 5 l-14 23 -6 -22 c-5 -18 -11 -22
-35 -18 -20 3 -28 0 -25 -8 3 -8 -4 -10 -22 -6 -29 5 -69 -23 -58 -42 4 -6 -2
-4 -12 4 -15 12 -17 12 -10 1 6 -11 4 -13 -9 -8 -14 6 -16 3 -11 -14 5 -14 3
-19 -3 -15 -6 3 -13 -3 -17 -14 -4 -11 -11 -18 -16 -14 -5 3 -8 2 -7 -3 1 -4
-2 -19 -6 -32 -6 -18 -10 -21 -17 -10 -6 10 -9 6 -9 -15 0 -22 -3 -26 -13 -18
-8 7 -18 7 -27 2 -12 -7 -10 -11 10 -19 l25 -11 -25 3 c-21 2 -25 -2 -25 -25
1 -15 -2 -26 -5 -26 -26 2 -32 -4 -26 -27 5 -18 2 -25 -8 -25 -8 0 -16 -7 -20
-15 -3 -8 -12 -15 -21 -15 -8 0 -15 -2 -15 -4 0 -2 -3 -12 -7 -22 -5 -13 -3
-15 8 -9 8 4 -3 -9 -24 -29 -20 -20 -44 -36 -52 -36 -10 0 -14 -9 -11 -30 2
-16 1 -29 -3 -28 -26 3 -51 -4 -51 -14 0 -16 -51 -68 -67 -68 -7 0 -13 -5 -13
-11 0 -6 -7 -18 -16 -26 -13 -13 -13 -18 -2 -25 9 -7 6 -8 -9 -5 -26 6 -42
-11 -23 -23 8 -5 5 -9 -10 -13 -15 -4 -21 -11 -17 -21 4 -9 3 -15 -1 -14 -16
3 -41 -15 -35 -25 4 -6 -2 -8 -15 -5 -15 4 -22 2 -22 -8 0 -8 -6 -14 -12 -14
-9 0 -8 -4 2 -10 12 -8 10 -10 -10 -11 -23 0 -23 -1 -5 -9 18 -8 18 -9 2 -9
-21 -1 -40 -18 -50 -43 -3 -10 -16 -18 -27 -18 -12 0 -18 -5 -15 -10 3 -6 -1
-13 -9 -16 -9 -3 -16 -10 -16 -16 0 -5 5 -6 11 -2 8 4 8 0 0 -15 -7 -12 -21
-21 -36 -21 -13 0 -27 -5 -31 -12 -5 -8 -2 -9 11 -4 15 5 16 4 5 -9 -7 -8 -17
-12 -23 -8 -6 4 -8 0 -4 -10 3 -9 -4 -25 -19 -40 -16 -16 -21 -28 -14 -32 12
-7 -149 -182 -163 -177 -5 1 -6 -2 -2 -8 3 -5 -2 -22 -13 -38 -11 -15 -34 -55
-52 -89 -17 -35 -34 -63 -36 -63 -4 0 5 28 18 56 7 15 7 27 -1 40 -11 18 -12
18 -7 -1 5 -16 1 -20 -19 -21 -22 -2 -23 0 -13 20 10 18 9 19 -4 8 -13 -10
-17 -10 -22 4 -3 9 -4 19 -1 24 3 4 -2 11 -11 14 -8 3 -12 11 -8 17 4 8 3 9
-4 5 -7 -4 -12 -2 -12 4 0 6 -4 9 -9 5 -6 -3 -9 4 -8 15 1 14 6 19 17 15 12
-4 12 -3 -2 8 -11 9 -14 22 -11 41 5 22 3 27 -7 21 -9 -6 -11 -4 -6 4 10 15
15 70 22 213 4 85 2 113 -10 137 l-16 30 102 118 c219 251 817 923 823 923 2
0 47 -14 101 -31z m1234 -623 c0 -3 -4 -8 -10 -11 -5 -3 -10 -1 -10 4 0 6 5
11 10 11 6 0 10 -2 10 -4z m-1840 -661 c-7 -8 -17 -12 -23 -8 -6 4 -3 9 9 14
27 11 28 11 14 -6z m-370 -255 c0 -5 -4 -10 -10 -10 -5 0 -10 5 -10 10 0 6 5
10 10 10 6 0 10 -4 10 -10z m10 -30 c0 -5 -2 -10 -4 -10 -3 0 -8 5 -11 10 -3
6 -1 10 4 10 6 0 11 -4 11 -10z m-447 -854 c76 -37 107 -131 73 -221 -18 -46
-117 -148 -157 -160 -24 -8 -118 47 -277 162 l-102 75 26 31 c42 50 106 95
165 117 70 26 214 23 272 -4z"/>
<path d="M4410 3951 c0 -7 -4 -9 -10 -6 -5 3 -10 1 -10 -4 0 -6 4 -11 9 -11
13 0 25 20 17 27 -3 4 -6 1 -6 -6z"/>
<path d="M4443 3941 c-9 -14 -8 -18 3 -18 7 0 11 4 8 9 -3 4 2 8 10 8 9 0 16
-5 16 -11 0 -6 7 -3 16 5 19 20 28 20 21 1 -4 -8 -2 -17 2 -19 14 -9 21 6 11
24 -13 24 -73 24 -87 1z"/>
<path d="M4560 3899 c0 -5 5 -7 10 -4 6 3 10 8 10 11 0 2 -4 4 -10 4 -5 0 -10
-5 -10 -11z"/>
<path d="M4671 6024 c0 -11 3 -14 6 -6 3 7 2 16 -1 19 -3 4 -6 -2 -5 -13z"/>
<path d="M3860 5990 c-14 -5 -221 -72 -460 -150 -550 -180 -625 -208 -671
-257 -20 -21 -107 -135 -194 -253 -87 -118 -206 -280 -265 -360 -660 -896
-636 -861 -620 -886 7 -11 24 -28 38 -38 15 -11 21 -13 15 -6 -7 8 -13 21 -13
30 0 12 2 12 9 2 5 -8 21 -14 37 -13 16 0 42 0 57 0 17 0 26 5 22 11 -3 5 1
10 9 10 8 0 23 11 34 25 11 14 25 25 30 25 6 0 17 6 24 13 14 13 116 77 123
77 3 0 2 -8 -2 -17 -6 -16 -3 -15 17 2 43 36 48 41 53 61 5 18 5 18 6 0 1 -18
2 -18 21 -1 11 10 17 22 13 28 -3 5 -1 7 5 3 6 -3 17 1 26 9 8 9 19 17 23 18
4 1 7 6 5 10 -1 5 2 6 7 3 10 -6 171 119 171 133 0 4 6 8 13 8 7 0 73 45 147
100 74 55 151 105 170 111 86 27 539 47 561 25 6 -6 14 -25 18 -42 8 -39 -2
-185 -19 -273 -10 -50 -10 -78 -2 -110 8 -30 8 -44 0 -49 -7 -4 -7 -9 1 -13 6
-4 11 -20 11 -35 0 -31 24 -59 35 -41 3 6 20 50 36 98 33 97 46 182 28 182 -7
0 -9 9 -5 25 4 15 2 25 -4 25 -6 0 -9 4 -6 8 3 5 -4 23 -15 40 -34 57 -21 46
38 -29 31 -41 83 -108 116 -149 34 -41 50 -66 36 -54 -31 25 -63 20 -87 -14
-30 -44 -76 -155 -79 -192 -2 -19 -4 -48 -6 -65 -1 -21 4 -32 20 -40 14 -7 19
-16 14 -24 -9 -14 -74 49 -120 117 -22 33 -25 34 -37 17 -14 -18 -14 -18 -29
1 -14 18 -14 17 -15 -13 0 -27 -6 -35 -45 -54 -25 -12 -45 -28 -45 -35 0 -7
-9 -16 -20 -19 -11 -3 -20 -11 -20 -17 0 -6 8 -7 18 -3 9 4 43 15 75 25 54 17
58 17 67 1 6 -12 5 -22 -2 -29 -8 -8 -5 -9 10 -5 17 4 27 -4 52 -43 l30 -48
-22 -25 c-24 -29 84 80 576 579 182 184 453 454 601 599 149 146 200 200 115
120 -179 -166 -592 -570 -792 -774 l-137 -140 -52 50 c-74 72 -209 237 -209
255 0 27 63 122 101 152 20 16 54 36 75 43 22 8 31 14 21 15 -58 1 -160 -82
-196 -162 l-18 -38 -36 62 c-20 35 -37 74 -36 88 l1 25 7 -25 c7 -24 7 -24 19
-5 10 18 11 18 12 2 0 -10 4 -16 10 -12 5 3 7 12 4 20 -8 20 22 30 41 15 13
-11 14 -10 9 4 -6 16 -17 20 -43 17 -7 -2 -11 4 -9 11 3 7 12 12 22 10 11 -2
16 4 16 23 0 14 -5 25 -10 25 -7 0 -8 6 -1 17 6 12 5 20 -5 28 -11 8 -6 27 29
105 34 77 43 90 45 68 2 -19 8 -25 18 -21 7 3 12 9 9 13 -6 10 22 66 31 62 3
-2 9 0 12 4 4 4 1 4 -7 -1 -10 -6 -12 -2 -6 16 4 13 11 29 15 34 10 14 19 55
13 55 -3 0 -12 -8 -20 -17 -57 -73 220 449 367 692 77 127 93 155 86 155 -6 0
-98 -140 -171 -260 -32 -52 -67 -104 -79 -115 -32 -30 -128 -204 -120 -217 4
-7 3 -8 -4 -4 -12 7 -16 -5 -13 -33 2 -8 -2 -10 -10 -5 -9 5 -10 2 -6 -10 5
-11 3 -15 -5 -10 -8 5 -9 2 -5 -10 4 -9 3 -15 -1 -12 -4 2 -18 -11 -31 -30
-13 -19 -26 -33 -28 -30 -10 10 177 351 309 564 49 79 92 150 95 158 6 16 -9
17 -47 4z m-465 -1990 c3 -5 2 -10 -4 -10 -5 0 -13 5 -16 10 -3 6 -2 10 4 10
5 0 13 -4 16 -10z m-54 -26 c20 -22 29 -67 15 -81 -9 -9 -39 21 -63 64 l-21
38 23 1 c13 1 33 -9 46 -22z"/>
<path d="M4643 5910 c-20 -81 -35 -117 -98 -237 -16 -33 -32 -46 -22 -19 8 21
-14 25 -35 7 -19 -16 -25 -37 -8 -26 6 3 10 1 10 -4 0 -6 -5 -11 -11 -11 -5 0
-7 -5 -4 -11 4 -6 14 -8 22 -5 16 7 15 4 -35 -71 -37 -58 -47 -64 -57 -33 -5
17 -9 18 -28 8 -12 -7 -25 -11 -29 -10 -5 1 -8 -2 -8 -8 0 -5 -7 -10 -16 -10
-8 0 -12 -5 -9 -11 4 -5 -6 -23 -23 -38 -35 -34 -50 -85 -22 -78 13 3 17 0 13
-9 -3 -9 1 -14 12 -14 9 0 13 -5 10 -10 -4 -6 -11 -8 -16 -4 -5 3 -8 1 -7 -4
2 -5 -7 -24 -20 -41 -20 -27 -26 -30 -45 -21 -21 11 -21 10 -3 -4 16 -13 17
-18 6 -31 -18 -21 -33 -19 -27 5 3 11 1 23 -4 26 -5 3 -9 0 -9 -6 0 -7 -7 -5
-16 4 -14 14 -17 14 -39 -2 -15 -11 -19 -19 -11 -24 6 -4 8 -8 4 -9 -25 -5
-34 -4 -40 6 -5 6 -8 3 -8 -6 0 -9 -10 -19 -21 -22 -15 -4 -20 -11 -15 -23 5
-13 2 -15 -19 -12 -13 3 -22 2 -20 -3 3 -4 0 -11 -6 -15 -8 -4 -7 -9 2 -15 11
-7 10 -9 -3 -9 -10 0 -18 -5 -18 -11 0 -5 -5 -7 -12 -3 -7 4 -8 3 -4 -5 4 -6
0 -18 -8 -27 -18 -17 -21 -34 -6 -34 17 0 -1 -28 -23 -35 -22 -6 -22 -6 -2
-16 17 -8 15 -9 -10 -5 -28 4 -29 3 -10 -10 17 -12 18 -16 5 -24 -8 -5 -17 -7
-21 -4 -4 2 -12 -3 -19 -11 -7 -8 -16 -12 -21 -9 -5 3 -9 1 -9 -3 0 -5 -12 -9
-27 -8 -22 0 -28 -4 -26 -20 1 -11 -3 -23 -10 -27 -10 -6 -17 -25 -19 -56 -1
-7 -8 -10 -17 -7 -13 4 -13 3 1 -8 13 -11 15 -16 6 -25 -9 -9 -9 -12 1 -12 9
0 11 -9 6 -29 -3 -17 -2 -32 4 -36 6 -3 11 -1 11 6 0 7 2 10 5 7 12 -12 -9
-39 -26 -35 -11 3 -16 0 -13 -8 3 -7 15 -11 27 -9 12 2 16 2 10 -2 -21 -9 -15
-42 8 -49 16 -5 18 -9 9 -15 -8 -5 -11 -19 -6 -41 3 -19 7 -63 7 -97 l2 -64
-54 -54 c-29 -29 -49 -57 -45 -61 5 -5 25 12 45 37 20 25 92 101 161 170 176
177 162 157 145 214 -20 67 -19 132 5 208 27 89 76 164 218 338 219 267 317
423 377 599 22 67 43 171 34 171 -2 0 -14 -41 -26 -90z m-366 -532 c-3 -8 -6
-5 -6 6 -1 11 2 17 5 13 3 -3 4 -12 1 -19z"/>
<path d="M3982 5783 c-10 -16 -24 -38 -31 -50 -21 -41 -5 -24 27 27 33 54 36
68 4 23z"/>
<path d="M4460 5590 c0 -5 5 -10 11 -10 5 0 7 5 4 10 -3 6 -8 10 -11 10 -2 0
-4 -4 -4 -10z"/>
<path d="M4227 5320 c-9 -11 -12 -20 -6 -20 7 0 18 8 26 18 13 16 14 15 8 -5
-4 -14 -2 -23 5 -23 14 0 9 42 -5 47 -6 2 -18 -6 -28 -17z"/>
<path d="M4206 5283 c5 -5 12 -12 16 -18 4 -6 8 -2 8 8 0 9 -7 17 -17 17 -9 0
-12 -3 -7 -7z"/>
<path d="M6412 4869 c-7 -10 -8 -19 -3 -19 13 0 33 28 23 33 -4 3 -13 -3 -20
-14z"/>
<path d="M3380 4671 c-7 -15 -7 -22 2 -27 7 -4 10 -4 6 1 -4 4 -3 16 3 26 5
11 7 19 5 19 -3 0 -10 -9 -16 -19z"/>
<path d="M3186 3944 c-18 -25 -18 -25 3 -12 11 7 23 18 25 25 9 22 -8 14 -28
-13z"/>
</g>
</svg>
